<svg xmlns="http://www.w3.org/2000/svg" width="100.112" height="109.327" viewBox="0 0 100.112 109.327">
  <g id="flow-ico" transform="translate(-56.853 -51.289)">
    <path id="Path_726" data-name="Path 726" d="M67.744,160.616H56.853l2.271-11.261a22.937,22.937,0,0,1,22.484-18.4H92.5l-2.27,11.26A22.936,22.936,0,0,1,67.744,160.616Z" fill="#fff"/>
    <path id="Path_727" data-name="Path 727" d="M103.628,120.9H62.356l2.27-11.26a22.937,22.937,0,0,1,22.485-18.4h41.272l-2.271,11.26A22.936,22.936,0,0,1,103.628,120.9Z" fill="#fff"/>
    <path id="Path_728" data-name="Path 728" d="M132.21,80.953H67.858l2.27-11.261a22.937,22.937,0,0,1,22.485-18.4h64.352l-2.27,11.26A22.937,22.937,0,0,1,132.21,80.953Z" fill="#fff"/>
  </g>
</svg>
