<svg xmlns="http://www.w3.org/2000/svg" width="67.361" height="46.754" viewBox="0 0 67.361 46.754">
  <path id="wlogo" d="M153.151,144.775s-5.476,17.157-5.888,18.613c-.158-1.456-4.147-32.288-4.147-32.288-9.338,0-14.308,6.616-16.935,13.675,0,0-6.648,17.22-7.186,18.676-.032-1.361-1.013-18.486-1.013-18.486-.57-8.61-8.42-13.833-14.783-13.833l7.66,46.722c9.781-.032,15.036-6.648,17.79-13.675,0,0,5.856-15.194,6.109-15.891.063.665,4.21,29.566,4.21,29.566,9.781,0,15.068-6.2,17.917-12.978L170.561,131.1C160.875,131.1,155.779,137.716,153.151,144.775Z" transform="translate(-103.2 -131.1)" fill="#fff"/>
</svg>
